<svg width="182" height="60" viewBox="0 0 182 60" fill="none" xmlns="http://www.w3.org/2000/svg">
<g style="mix-blend-mode:overlay" filter="url(#filter0_i_2735_43668)">
<path d="M113.601 21.2556C102.777 11.6237 97.3649 6.80778 90.869 6.77952C84.3732 6.75126 78.9736 11.5202 68.1744 21.058L15.8879 67.237C8.20426 74.0231 4.36245 77.4162 2.96749 82.0603C1.57252 86.7044 2.90149 91.6771 5.55946 101.623L28.1689 186.222C31.4397 198.461 33.0752 204.58 37.6932 208.146C42.3112 211.712 48.6365 211.739 61.2871 211.794L120.977 212.054C133.628 212.109 139.953 212.136 144.562 208.611C149.171 205.085 150.791 198.98 154.03 186.769L176.423 102.366C179.055 92.4434 180.372 87.4822 178.965 82.8259C177.558 78.1696 173.707 74.7431 166.006 67.89L113.601 21.2556Z" fill="url(#paint0_linear_2735_43668)" fill-opacity="0.08"/>
</g>
<g style="mix-blend-mode:overlay" filter="url(#filter1_i_2735_43668)">
<path d="M113.615 39.9232C102.794 30.3001 97.3837 25.4886 90.8909 25.4603C84.398 25.4321 79 30.1966 68.204 39.7256L31.9608 71.7155C24.2713 78.5025 20.4266 81.8961 19.0306 86.5421C17.6347 91.1882 18.9651 96.1631 21.6259 106.113L38.0637 167.582C41.336 179.818 42.9721 185.937 47.5898 189.502C52.2075 193.067 58.5319 193.094 71.1806 193.149L111.031 193.322C123.68 193.378 130.004 193.405 134.613 189.88C139.222 186.355 140.842 180.251 144.083 168.043L160.363 106.717C162.999 96.7897 164.316 91.8263 162.909 87.168C161.501 82.5098 157.647 79.0827 149.94 72.2287L113.615 39.9232Z" fill="url(#paint1_linear_2735_43668)" fill-opacity="0.15"/>
</g>
<g style="mix-blend-mode:overlay" filter="url(#filter2_i_2735_43668)">
<path d="M125.002 69.3068C108.773 54.8759 100.658 47.6604 90.9201 47.6181C81.1821 47.5757 73.0857 54.7206 56.8931 69.0105L31.1651 91.7152L44.5564 141.783C48.8323 157.77 50.9703 165.763 56.5651 170.871C57.6173 171.832 58.7469 172.704 59.9424 173.478C66.2986 177.597 74.5614 177.633 91.0869 177.705C107.612 177.777 115.875 177.813 122.221 173.749C123.414 172.985 124.542 172.123 125.592 171.171C131.173 166.112 133.291 158.137 137.526 142.188L142.662 122.842C146.616 107.95 148.593 100.504 146.481 93.5155C144.369 86.5274 138.588 81.3866 127.025 71.1051L125.002 69.3068Z" fill="url(#paint2_linear_2735_43668)" fill-opacity="0.25"/>
</g>
<path opacity="0.07" d="M90.8919 26.2574C94.7083 26.274 98.1983 27.6979 102.302 30.5094C106.401 33.3174 111.127 37.5205 117.414 43.1118L117.422 43.1191L142.115 65.0792L142.121 65.0848C147.896 70.2206 152.236 74.08 155.395 77.5291C158.557 80.982 160.545 84.0324 161.61 87.5539C162.674 91.0755 162.706 94.7071 161.979 99.3153C161.254 103.919 159.77 109.508 157.796 116.946L157.793 116.955L147.592 155.383L147.589 155.393C145.161 164.541 143.336 171.415 141.253 176.661C139.169 181.914 136.82 185.55 133.336 188.215C129.851 190.88 125.724 192.197 120.102 192.839C114.486 193.48 107.364 193.449 97.8862 193.408L97.8764 193.408L84.336 193.349L84.3262 193.349C74.848 193.308 67.7261 193.277 62.1086 192.587C56.4854 191.896 52.354 190.543 48.8628 187.848C45.3716 185.152 43.0139 181.495 40.9157 176.225C38.8196 170.96 36.9772 164.07 34.5252 154.901L34.5226 154.891L24.2223 116.374L24.2199 116.365C22.2263 108.909 20.7281 103.307 19.9909 98.6976C19.2529 94.0831 19.2753 90.4517 20.3306 86.9394C21.3859 83.427 23.3659 80.3939 26.5195 76.9685C29.6698 73.5468 33.9998 69.725 39.7617 64.6393L39.7677 64.6339L64.4045 42.8885L64.4126 42.8813C70.6855 37.3446 75.4009 33.1826 79.4925 30.4102C83.5891 27.6343 87.0755 26.2408 90.8919 26.2574Z" stroke="black" stroke-width="0.285324"/>
<path opacity="0.07" d="M31.0273 91.7514L31.0045 91.6661L31.0704 91.608L56.7983 68.9033L56.8064 68.8962C64.8959 61.7573 70.9737 56.3937 76.2466 52.8214C81.5246 49.2457 86.0113 47.454 90.9199 47.4754C95.8285 47.4967 100.32 49.3275 105.607 52.9492C110.889 56.5674 116.981 61.9839 125.089 69.1933L125.097 69.2005L135.041 78.0422L135.047 78.0477C138.896 81.4702 141.791 84.0446 143.899 86.346C146.011 88.6511 147.341 90.6911 148.054 93.0483C148.766 95.4056 148.787 97.8348 148.302 100.911C147.817 103.983 146.827 107.712 145.511 112.669L145.509 112.677L134.933 152.51L134.93 152.52C133.312 158.615 132.094 163.2 130.705 166.7C129.313 170.206 127.743 172.639 125.411 174.422C123.079 176.206 120.318 177.086 116.566 177.514C112.819 177.942 108.069 177.921 101.753 177.894L101.744 177.894L80.4305 177.801L80.4208 177.801C74.1049 177.774 69.3549 177.753 65.6073 177.293C61.8539 176.831 59.0903 175.928 56.7536 174.124C54.4169 172.32 52.8408 169.873 51.4402 166.355C50.0417 162.843 48.8127 158.248 47.1786 152.138L47.176 152.128L31.0273 91.7514Z" stroke="black" stroke-width="0.285324"/>
<defs>
<filter id="filter0_i_2735_43668" x="2.40564" y="6.7793" width="177.131" height="205.287" filterUnits="userSpaceOnUse" color-interpolation-filters="sRGB">
<feFlood flood-opacity="0" result="BackgroundImageFix"/>
<feBlend mode="normal" in="SourceGraphic" in2="BackgroundImageFix" result="shape"/>
<feColorMatrix in="SourceAlpha" type="matrix" values="0 0 0 0 0 0 0 0 0 0 0 0 0 0 0 0 0 0 127 0" result="hardAlpha"/>
<feOffset dx="0.285324"/>
<feComposite in2="hardAlpha" operator="arithmetic" k2="-1" k3="1"/>
<feColorMatrix type="matrix" values="0 0 0 0 1 0 0 0 0 1 0 0 0 0 1 0 0 0 0.15 0"/>
<feBlend mode="normal" in2="shape" result="effect1_innerShadow_2735_43668"/>
</filter>
<filter id="filter1_i_2735_43668" x="18.4685" y="25.46" width="145.012" height="167.875" filterUnits="userSpaceOnUse" color-interpolation-filters="sRGB">
<feFlood flood-opacity="0" result="BackgroundImageFix"/>
<feBlend mode="normal" in="SourceGraphic" in2="BackgroundImageFix" result="shape"/>
<feColorMatrix in="SourceAlpha" type="matrix" values="0 0 0 0 0 0 0 0 0 0 0 0 0 0 0 0 0 0 127 0" result="hardAlpha"/>
<feOffset dx="0.285324"/>
<feComposite in2="hardAlpha" operator="arithmetic" k2="-1" k3="1"/>
<feColorMatrix type="matrix" values="0 0 0 0 1 0 0 0 0 1 0 0 0 0 1 0 0 0 0.15 0"/>
<feBlend mode="normal" in2="shape" result="effect1_innerShadow_2735_43668"/>
</filter>
<filter id="filter2_i_2735_43668" x="31.1652" y="47.6182" width="116.175" height="130.104" filterUnits="userSpaceOnUse" color-interpolation-filters="sRGB">
<feFlood flood-opacity="0" result="BackgroundImageFix"/>
<feBlend mode="normal" in="SourceGraphic" in2="BackgroundImageFix" result="shape"/>
<feColorMatrix in="SourceAlpha" type="matrix" values="0 0 0 0 0 0 0 0 0 0 0 0 0 0 0 0 0 0 127 0" result="hardAlpha"/>
<feOffset dx="0.171195" dy="0.285324"/>
<feComposite in2="hardAlpha" operator="arithmetic" k2="-1" k3="1"/>
<feColorMatrix type="matrix" values="0 0 0 0 1 0 0 0 0 0.9 0 0 0 0 0.948 0 0 0 0.2 0"/>
<feBlend mode="normal" in2="shape" result="effect1_innerShadow_2735_43668"/>
</filter>
<linearGradient id="paint0_linear_2735_43668" x1="44.6413" y1="211.653" x2="156.982" y2="119.771" gradientUnits="userSpaceOnUse">
<stop stop-color="white" stop-opacity="0"/>
<stop offset="1" stop-color="white"/>
</linearGradient>
<linearGradient id="paint1_linear_2735_43668" x1="52.8304" y1="193.013" x2="145.274" y2="117.358" gradientUnits="userSpaceOnUse">
<stop stop-color="white" stop-opacity="0"/>
<stop offset="1" stop-color="white"/>
</linearGradient>
<linearGradient id="paint2_linear_2735_43668" x1="60.4854" y1="177.527" x2="134.384" y2="117.038" gradientUnits="userSpaceOnUse">
<stop stop-color="white" stop-opacity="0"/>
<stop offset="1" stop-color="white"/>
</linearGradient>
</defs>
</svg>
