<svg width="24" height="24" viewBox="0 0 24 24" fill="none" xmlns="http://www.w3.org/2000/svg">
    <rect width="24" height="24" rx="12" fill="url(#paint0_linear_23317_5767)"/>
    <path fill-rule="evenodd" clip-rule="evenodd"
          d="M7.80148 7.51822C7.4549 7.58688 7.12232 7.77053 6.89676 8.01783C6.74322 8.18618 6.65885 8.32452 6.57526 8.54494C6.51808 8.69576 6.51285 8.74542 6.50332 9.23017C6.4957 9.61875 6.50076 9.76207 6.52309 9.78897C6.54935 9.82063 7.23297 9.82515 12 9.82515C16.767 9.82515 17.4507 9.82063 17.4769 9.78897C17.4992 9.76207 17.5043 9.61875 17.4967 9.23017C17.4872 8.74542 17.4819 8.69576 17.4247 8.54494C17.3908 8.45554 17.3337 8.33223 17.2978 8.27097C17.1231 7.97288 16.7675 7.6921 16.4122 7.57167L16.2125 7.50398L12.0614 7.50032C9.76119 7.49828 7.86178 7.50626 7.80148 7.51822ZM6.52473 11.4068C6.50373 11.4321 6.49818 11.8897 6.50332 13.1691L6.51024 14.8973L6.57727 15.081C6.74514 15.541 7.11431 15.8888 7.61505 16.0586L7.81206 16.1255H12H16.1879L16.385 16.0586C16.8857 15.8888 17.2549 15.541 17.4227 15.081L17.4898 14.8973L17.4967 13.1691C17.5018 11.8897 17.4963 11.4321 17.4753 11.4068C17.4327 11.3555 6.56733 11.3555 6.52473 11.4068ZM15.5689 13.8129C15.6713 13.8557 15.7978 14.0002 15.8195 14.0992C15.8575 14.2722 15.7688 14.4605 15.6114 14.5408C15.5141 14.5905 15.4839 14.5914 14.249 14.5848C13.0172 14.5782 12.9844 14.5768 12.9183 14.5274C12.7873 14.4296 12.7492 14.3533 12.7492 14.1894C12.7492 14.005 12.8149 13.896 12.9678 13.8265C13.0616 13.784 13.1516 13.7808 14.279 13.7803C15.241 13.7799 15.5058 13.7865 15.5689 13.8129Z"
          fill="white"/>
    <defs>
        <linearGradient id="paint0_linear_23317_5767" x1="-1.2789e-06" y1="24.1467" x2="24.7118" y2="23.3899"
                        gradientUnits="userSpaceOnUse">
            <stop stop-color="#6B40EA"/>
            <stop offset="0.2" stop-color="#4D5CF6"/>
            <stop offset="0.4" stop-color="#2871FE"/>
            <stop offset="0.6" stop-color="#0084FF"/>
            <stop offset="0.8" stop-color="#0094FF"/>
            <stop offset="1" stop-color="#00A3FF"/>
        </linearGradient>
    </defs>
</svg>
